<svg width="38" height="38" viewBox="0 0 38 38" fill="none" xmlns="http://www.w3.org/2000/svg">
<path d="M18.75 4.68939C21.5313 4.68939 24.2501 5.51414 26.5627 7.05935C28.8753 8.60456 30.6777 10.8008 31.7421 13.3704C32.8064 15.94 33.0849 18.7675 32.5423 21.4954C31.9997 24.2232 30.6604 26.7289 28.6937 28.6956C26.727 30.6623 24.2213 32.0016 21.4935 32.5442C18.7656 33.0868 15.9381 32.8083 13.3685 31.7439C10.7989 30.6796 8.60267 28.8772 7.05746 26.5646C5.51225 24.252 4.6875 21.5332 4.6875 18.7519C4.6875 18.1303 4.44057 17.5341 4.00103 17.0946C3.56149 16.6551 2.96535 16.4081 2.34375 16.4081C1.72215 16.4081 1.12601 16.6551 0.686468 17.0946C0.24693 17.5341 1.30993e-08 18.1303 0 18.7519C0.000422679 22.959 1.41574 27.0437 4.01836 30.3492C6.62098 33.6547 10.2597 35.9888 14.3492 36.9762C18.4388 37.9637 22.7417 37.5471 26.5659 35.7933C30.39 34.0396 33.5133 31.0507 35.4334 27.3073C37.3535 23.5639 37.9588 19.2836 37.152 15.1545C36.3453 11.0255 34.1733 7.28774 30.9854 4.54237C27.7975 1.79699 23.7789 0.203525 19.5759 0.018208C15.3729 -0.167109 11.2297 1.06649 7.8125 3.52064V2.34564C7.8125 1.72404 7.56557 1.1279 7.12603 0.688361C6.68649 0.248823 6.09035 0.00189277 5.46875 0.00189277C4.84715 0.00189277 4.25101 0.248823 3.81147 0.688361C3.37193 1.1279 3.125 1.72404 3.125 2.34564V10.1581C3.125 11.4519 4.175 12.5019 5.46875 12.5019H10.1562C10.7779 12.5019 11.374 12.255 11.8135 11.8154C12.2531 11.3759 12.5 10.7797 12.5 10.1581C12.5 9.53654 12.2531 8.9404 11.8135 8.50086C11.374 8.06132 10.7779 7.81439 10.1562 7.81439H9.90938C12.4094 5.7875 15.5315 4.6839 18.75 4.68939ZM20.3125 11.7206C20.3125 11.099 20.0656 10.5029 19.626 10.0634C19.1865 9.62382 18.5904 9.37689 17.9688 9.37689C17.3471 9.37689 16.751 9.62382 16.3115 10.0634C15.8719 10.5029 15.625 11.099 15.625 11.7206V19.5331C15.625 20.8269 16.675 21.8769 17.9688 21.8769H22.6562C23.2779 21.8769 23.874 21.63 24.3135 21.1904C24.7531 20.7509 25 20.1547 25 19.5331C25 18.9115 24.7531 18.3154 24.3135 17.8759C23.874 17.4363 23.2779 17.1894 22.6562 17.1894H20.3125V11.7206Z" fill="#EEEEEE"/>
</svg>
