<svg width="44" height="43" viewBox="0 0 44 43" fill="none" xmlns="http://www.w3.org/2000/svg">
<path d="M22 28.277C22.9193 28.277 23.8295 28.0959 24.6788 27.7442C25.5281 27.3924 26.2997 26.8768 26.9497 26.2267C27.5998 25.5767 28.1154 24.8051 28.4672 23.9558C28.8189 23.1065 29 22.1963 29 21.277C29 20.3577 28.8189 19.4475 28.4672 18.5982C28.1154 17.7489 27.5998 16.9773 26.9497 16.3273C26.2997 15.6772 25.5281 15.1616 24.6788 14.8098C23.8295 14.4581 22.9193 14.277 22 14.277C20.1435 14.277 18.363 15.0145 17.0503 16.3273C15.7375 17.64 15 19.4205 15 21.277C15 23.1335 15.7375 24.914 17.0503 26.2267C18.363 27.5395 20.1435 28.277 22 28.277V28.277Z" stroke="#EEEEEE" stroke-width="4" stroke-linejoin="round"/>
<path d="M16.284 40.448C12.9761 39.4604 9.98018 37.6331 7.588 35.144C8.35768 34.2311 8.83747 33.1094 8.96599 31.9222C9.09451 30.7351 8.86591 29.5367 8.30944 28.4802C7.75298 27.4238 6.89395 26.5574 5.84229 25.9919C4.79063 25.4264 3.59417 25.1876 2.406 25.306C2.13532 23.9801 1.9993 22.6302 2 21.277C2 19.187 2.32 17.171 2.916 15.277H3C4.01976 15.2773 5.02277 15.0177 5.91434 14.5227C6.8059 14.0278 7.55659 13.3137 8.09553 12.448C8.63447 11.5823 8.94387 10.5935 8.99452 9.575C9.04517 8.55651 8.8354 7.5419 8.385 6.627C10.7296 4.44382 13.5651 2.85683 16.652 2C17.1544 2.9864 17.9198 3.8146 18.8637 4.39295C19.8076 4.97131 20.893 5.27727 22 5.277C23.107 5.27727 24.1924 4.97131 25.1363 4.39295C26.0802 3.8146 26.8456 2.9864 27.348 2C30.4349 2.85683 33.2704 4.44382 35.615 6.627C35.1613 7.54831 34.9517 8.57065 35.0062 9.59615C35.0608 10.6217 35.3776 11.616 35.9264 12.484C36.4752 13.352 37.2376 14.0647 38.1407 14.5537C39.0437 15.0427 40.0572 15.2918 41.084 15.277C41.693 17.2187 42.0018 19.242 42 21.277C42 22.657 41.86 24.005 41.594 25.307C40.4058 25.1886 39.2094 25.4274 38.1577 25.9929C37.1061 26.5584 36.247 27.4248 35.6906 28.4812C35.1341 29.5377 34.9055 30.7361 35.034 31.9232C35.1625 33.1104 35.6423 34.2321 36.412 35.145C34.0197 37.6337 31.0238 39.4606 27.716 40.448C27.3276 39.2373 26.5647 38.1812 25.5374 37.4319C24.5102 36.6827 23.2715 36.2789 22 36.2789C20.7285 36.2789 19.4899 36.6827 18.4626 37.4319C17.4353 38.1812 16.6725 39.2373 16.284 40.448Z" stroke="#EEEEEE" stroke-width="4" stroke-linejoin="round"/>
</svg>
