<svg width="35" height="40" viewBox="0 0 35 40" fill="none" xmlns="http://www.w3.org/2000/svg">
<path d="M17.505 1.60468C17.7998 1.18206 18.1785 0.824725 18.6175 0.554968C19.0565 0.285212 19.5464 0.108823 20.0566 0.0368071C20.5668 -0.0352087 21.0864 -0.00130594 21.5829 0.1364C22.0794 0.274106 22.5423 0.512661 22.9425 0.837179L31.1175 7.47468C31.8479 8.06742 32.3289 8.91304 32.4651 9.84382C32.6012 10.7746 32.3826 11.7226 31.8525 12.4997H28.8025L29.7775 11.1022C29.959 10.8433 30.0356 10.5253 29.992 10.2122C29.9484 9.89907 29.7878 9.6141 29.5425 9.41468L25.3325 5.99968L20.8425 12.4997H17.8L23.385 4.41968L21.365 2.77968C21.2316 2.67146 21.0774 2.59189 20.9119 2.54592C20.7465 2.49996 20.5733 2.48858 20.4032 2.51251C20.2332 2.53643 20.0698 2.59515 19.9235 2.68499C19.7771 2.77483 19.6508 2.89387 19.5525 3.03468L12.95 12.4972H9.9L17.505 1.60468V1.60468ZM26.25 27.4997C25.9185 27.4997 25.6005 27.6314 25.3661 27.8658C25.1317 28.1002 25 28.4182 25 28.7497C25 29.0812 25.1317 29.3991 25.3661 29.6336C25.6005 29.868 25.9185 29.9997 26.25 29.9997H28.75C29.0815 29.9997 29.3995 29.868 29.6339 29.6336C29.8683 29.3991 30 29.0812 30 28.7497C30 28.4182 29.8683 28.1002 29.6339 27.8658C29.3995 27.6314 29.0815 27.4997 28.75 27.4997H26.25ZM3.75 9.99968H9.1725L7.4225 12.4997H3.75C3.41848 12.4997 3.10054 12.6314 2.86612 12.8658C2.6317 13.1002 2.5 13.4182 2.5 13.7497C2.5 14.0812 2.6317 14.3991 2.86612 14.6336C3.10054 14.868 3.41848 14.9997 3.75 14.9997H30C31.3261 14.9997 32.5979 15.5265 33.5355 16.4641C34.4732 17.4018 35 18.6736 35 19.9997V34.9997C35 36.3258 34.4732 37.5975 33.5355 38.5352C32.5979 39.4729 31.3261 39.9997 30 39.9997H6.25C4.5924 39.9997 3.00269 39.3412 1.83058 38.1691C0.65848 36.997 0 35.4073 0 33.7497V13.7497C0 12.7551 0.395088 11.8013 1.09835 11.098C1.80161 10.3948 2.75544 9.99968 3.75 9.99968V9.99968ZM2.5 33.7497C2.5 34.7442 2.89509 35.6981 3.59835 36.4013C4.30161 37.1046 5.25544 37.4997 6.25 37.4997H30C30.663 37.4997 31.2989 37.2363 31.7678 36.7674C32.2366 36.2986 32.5 35.6627 32.5 34.9997V19.9997C32.5 19.3366 32.2366 18.7008 31.7678 18.2319C31.2989 17.7631 30.663 17.4997 30 17.4997H3.75C3.3125 17.4997 2.89 17.4247 2.5 17.2872V33.7497Z" fill="#EEEEEE"/>
</svg>
